# xmcd CD database file
#
# Track frame offsets:
#	150
#	13685
#	27970
#	41687
#	53218
#	65457
#	80798
#	93607
#	107984
#	117107
#	131416
#	147768
#	160445
#	179474
#	193772
#	208685
#	223603
#	235648
#	250304
#	263789
#	281883
#	294931
#	310182
#
# Disc length: 4320 seconds
#
# Revision: 0
# Processed by: cddbd v1.5.2PL0 Copyright (c) Steve Scherf et al.
# Submitted via: CDex 1.70beta2
#
DISCID=5c10de17
DTITLE=Various Artist - That Devilin' Tune (A Jazz History) Volume 1 [CD2)
DYEAR=2005
DGENRE=Jazz
TTITLE0=Ed Morton - Wild Cherries Rag
TTITLE1=Al Jonson - That Lovin' Traumeri
TTITLE2=Roy Spangler - Red Onion Rag
TTITLE3=Orch. De Palais de Dance - Temptation Rag
TTITLE4=Hedges Brothers and Jacobson - San Francisco Bay
TTITLE5=James Reese Europe - Down Home Rag
TTITLE6=Bert Williams - You Can't Get Away From It
TTITLE7=Victor Military Orchestra - Blame It On The Blues
TTITLE8=Irving Berlin - Follow The Crowd
TTITLE9=Nora Bayes - You Can't Can't Get Away From It
TTITLE10=James Reese Europe - Castle House Rag
TTITLE11=Lionel Belasco - Bajan Girl
TTITLE12=Joan Sawyer's Persian Garden Orchestra - When You're A Long Way From Home
TTITLE13=Peerless Quartet - Alagazam
TTITLE14=Gus Haenschen - Sunset Medley
TTITLE15=Gus Haenschen - Country Club Medley
TTITLE16=Fred Van Eps - Raggin' The Scale
TTITLE17=Nora Bayes - Homesickness Blues
TTITLE18=Marion Harris - Paradise Blues
TTITLE19=Ciro's Coon Club Orchestra - St Louis Blues
TTITLE20=Earl Fuller's Famous Jass Band - Slippery Hank
TTITLE21=Frisco Jazz Band - Canary Cottage
TTITLE22=Frank Banta and Howard Kopp - Calico Rag
EXTD=YEAR: 2005
EXTT0=
EXTT1=
EXTT2=
EXTT3=
EXTT4=
EXTT5=
EXTT6=
EXTT7=
EXTT8=
EXTT9=
EXTT10=
EXTT11=
EXTT12=
EXTT13=
EXTT14=
EXTT15=
EXTT16=
EXTT17=
EXTT18=
EXTT19=
EXTT20=
EXTT21=
EXTT22=
PLAYORDER=
